<?xml version="1.0" encoding="iso-8859-1"?>
<!-- Generator: Adobe Illustrator 18.0.0, SVG Export Plug-In . SVG Version: 6.00 Build 0)  -->
<!DOCTYPE svg PUBLIC "-//W3C//DTD SVG 1.1//EN" "http://www.w3.org/Graphics/SVG/1.1/DTD/svg11.dtd">
<svg version="1.1" id="Capa_1" xmlns="http://www.w3.org/2000/svg" xmlns:xlink="http://www.w3.org/1999/xlink" x="0px" y="0px"
	 viewBox="0 0 410.719 410.719" style="enable-background:new 0 0 410.719 410.719;" xml:space="preserve">
<g>
	<path style="fill:#ff6464;" d="M107.956,164.16h132.667c8.284,0,15-6.716,15-15c0-8.284-6.716-15-15-15H107.956
		c-8.284,0-15,6.716-15,15C92.956,157.444,99.672,164.16,107.956,164.16z"/>
	<path style="fill:#ff6464;" d="M255.623,239.16c0-8.284-6.716-15-15-15H107.956c-8.284,0-15,6.716-15,15c0,8.284,6.716,15,15,15
		h132.667C248.907,254.16,255.623,247.444,255.623,239.16z"/>
	<path style="fill:#ff6464;" d="M374.588,299.973c-4.388-13.503-15.845-23.162-29.904-25.208l-17.32-2.516l-7.75-15.707
		c-1.449-2.933-3.253-5.595-5.324-7.979V73.703c0-3.934-1.56-7.705-4.344-10.483L251.07,4.339C248.285,1.561,244.519,0,240.586,0
		H63.401C47.348,0,34.289,13.059,34.289,29.112v312.096c0,16.053,13.059,29.112,29.111,29.112h153.388
		c-1.208,12.988,4.415,25.553,15.113,33.325c6.369,4.627,13.897,7.072,21.772,7.072c5.982,0,11.942-1.472,17.236-4.255l15.493-8.144
		l15.496,8.146c5.295,2.782,11.254,4.253,17.233,4.253c7.877,0,15.408-2.447,21.773-7.075c11.489-8.348,17.136-22.229,14.736-36.228
		l-2.959-17.25l12.53-12.214C375.385,328.038,378.979,313.485,374.588,299.973z M65.903,32.414h154.088v43.577
		c0,10.554,8.554,19.105,19.105,19.105h43.58v141.013c-12.669,1.254-23.756,8.831-29.492,20.443l-7.745,15.696l-17.327,2.517
		c-14.053,2.045-25.509,11.704-29.898,25.21c-4.382,13.491-0.804,28.02,9.335,37.932H65.903V32.414z M347.764,320.045
		l-21.947,21.392l5.182,30.205c0.774,4.517-1.083,9.083-4.791,11.777c-2.096,1.523-4.583,2.3-7.078,2.3
		c-1.917,0-3.84-0.457-5.604-1.384l-27.124-14.26l-27.126,14.26c-4.057,2.133-8.975,1.777-12.682-0.916
		c-3.708-2.694-5.566-7.261-4.79-11.777l5.182-30.205l-21.946-21.392c-3.282-3.199-4.463-7.984-3.047-12.346
		c1.417-4.358,5.185-7.534,9.721-8.194l30.328-4.405l13.562-27.483c2.03-4.109,6.214-6.712,10.798-6.712
		c4.584,0,8.768,2.603,10.798,6.712l13.562,27.483l30.328,4.405c4.537,0.66,8.306,3.836,9.722,8.194
		C352.229,312.06,351.048,316.846,347.764,320.045z"/>
</g>
<g>
</g>
<g>
</g>
<g>
</g>
<g>
</g>
<g>
</g>
<g>
</g>
<g>
</g>
<g>
</g>
<g>
</g>
<g>
</g>
<g>
</g>
<g>
</g>
<g>
</g>
<g>
</g>
<g>
</g>
</svg>
