<?xml version="1.0" encoding="iso-8859-1"?>
<!-- Generator: Adobe Illustrator 16.0.0, SVG Export Plug-In . SVG Version: 6.00 Build 0)  -->
<!DOCTYPE svg PUBLIC "-//W3C//DTD SVG 1.1//EN" "http://www.w3.org/Graphics/SVG/1.1/DTD/svg11.dtd">
<svg version="1.1" id="Capa_1" xmlns="http://www.w3.org/2000/svg" xmlns:xlink="http://www.w3.org/1999/xlink" x="0px" y="0px"
	 width="486.127px" height="486.127px" viewBox="0 0 486.127 486.127" style="enable-background:new 0 0 486.127 486.127; fill: #8bcd20"
	 xml:space="preserve">
<g>
	<path d="M406.215,73.544l3.706-6.8C409.921,23.398,322.166,0,243.064,0C163.98,0,76.206,23.398,76.206,66.744l3.708,8.65v331.249
		l-3.708,12.74c0,43.349,87.774,66.744,166.858,66.744c79.102,0,166.857-23.396,166.857-66.744l-3.706-11.504V73.544z
		 M383.962,419.383c0,18.585-53.615,44.496-140.898,44.496c-87.287,0-140.902-25.911-140.902-44.496V251.906
		c-1.204-1.881-1.86-5.759-1.86-5.759s29.692,28.791,146.561,28.791c116.868,0,137.002-28.791,137.002-28.791
		c0,1.834-0.556,3.635-1.61,5.395h1.718v167.842H383.962z M243.064,111.242c-87.291,0-140.902-25.912-140.902-44.494
		s53.615-44.494,140.902-44.494c87.283,0,140.898,25.912,140.898,44.494S330.357,111.242,243.064,111.242z M209.792,43.25
		l-11.743,49.511l-4.87-0.143l11.761-49.511L209.792,43.25z M266.417,44.865l-11.756,49.513l-4.877-0.145l11.742-49.501
		L266.417,44.865z M218.925,43.518L207.174,93.02l-2.42-0.067l11.761-49.506L218.925,43.518z M270.893,45l-11.766,49.501
		l-2.437-0.067l11.762-49.511L270.893,45z M256.281,44.578L244.52,94.082l-2.441-0.068l11.761-49.501L256.281,44.578z
		 M244.295,44.239l-11.761,49.501l-2.417-0.065l11.751-49.503L244.295,44.239z M229.898,43.824l-11.761,49.51l-4.875-0.142
		l11.761-49.501L229.898,43.824z M251.203,44.436l-11.751,49.501l-4.884-0.143l11.754-49.497L251.203,44.436z M233.96,43.943
		l-11.764,49.501l-2.427-0.065l11.761-49.513L233.96,43.943z M277.385,45.18l-11.742,49.499l-2.455-0.058L274.94,45.11
		L277.385,45.18z M288.334,45.493l-11.752,49.506l-4.877-0.138l11.761-49.504L288.334,45.493z M289.958,45.539l2.44,0.068
		l-11.766,49.511l-2.436-0.068L289.958,45.539z M169.083,308.517h32.368v9.713H182.03v8.093h17.803v9.707H182.03v17.801h-12.946
		V308.517z M224.076,307.874c-11.871,0-17.808,6.044-17.808,18.127v10.683c0,11.864,5.937,17.8,17.808,17.8
		c11.866,0,17.803-5.936,17.803-17.8V326C241.878,313.917,235.942,307.874,224.076,307.874z M228.927,336.683
		c0,5.396-1.615,8.093-4.856,8.093c-3.239,0-4.856-2.697-4.856-8.093V326c0-5.61,1.617-8.415,4.856-8.415
		c3.237,0,4.856,2.805,4.856,8.415V336.683z M264.495,307.874c-11.868,0-17.805,6.044-17.805,18.127v10.683
		c0,11.864,5.937,17.8,17.805,17.8s17.805-5.936,17.805-17.8V326C282.299,313.917,276.368,307.874,264.495,307.874z
		 M269.353,336.683c0,5.396-1.614,8.093-4.858,8.093c-3.239,0-4.854-2.697-4.854-8.093V326c0-5.61,1.614-8.415,4.854-8.415
		s4.858,2.805,4.858,8.415V336.683z M303.306,308.517h-16.19v45.313h16.19c12.946,0,19.42-5.933,19.42-17.801v-9.381
		C322.726,314.561,316.252,308.517,303.306,308.517z M309.775,336.04c0,5.395-2.161,8.088-6.469,8.088h-3.239V318.23h3.239
		c4.312,0,6.469,2.805,6.469,8.419V336.04z"/>
</g>
<g>
</g>
<g>
</g>
<g>
</g>
<g>
</g>
<g>
</g>
<g>
</g>
<g>
</g>
<g>
</g>
<g>
</g>
<g>
</g>
<g>
</g>
<g>
</g>
<g>
</g>
<g>
</g>
<g>
</g>
</svg>
