<?xml version="1.0" encoding="iso-8859-1"?>
<!-- Generator: Adobe Illustrator 16.0.0, SVG Export Plug-In . SVG Version: 6.00 Build 0)  -->
<!DOCTYPE svg PUBLIC "-//W3C//DTD SVG 1.1//EN" "http://www.w3.org/Graphics/SVG/1.1/DTD/svg11.dtd">
<svg version="1.1" id="Capa_1" xmlns="http://www.w3.org/2000/svg" xmlns:xlink="http://www.w3.org/1999/xlink" x="0px" y="0px"
	 width="427.183px" height="427.182px" viewBox="0 0 427.183 427.182" style="fill: #eca6d4; enable-background:new 0 0 427.183 427.182;"
	 xml:space="preserve">
<g>
	<g>
		<path d="M392.648,57.489c0-0.147,0.061-0.329,0.061-0.483c0-0.138-0.061-0.278-0.079-0.416v-1.223
			c0-1.094-0.299-2.093-0.737-3.005c-3.986-12.762-24.446-24.633-48.79-37.54l-3.594-1.918
			c-17.978-9.495-66.786-27.622-131.588,9.32L59.354,105.256c-16.827,8.373-25.177,17.597-25.501,28.149
			c0,0.101,0.028,0.18,0.028,0.283c0,0.051-0.037,0.107-0.037,0.161l0.616,215.453c-0.114,1.116-2.375,27.2,28.603,49.537
			c20.937,12.54,47.294,28.306,80.283,28.306c2.793,0,5.673-0.21,8.536-0.443c0.765,0.275,1.568,0.48,2.413,0.48
			c1.407,0,2.653-0.509,3.757-1.218c9.873-1.4,20.26-4.131,31.269-8.914l200.589-120.714c2.133-1.288,3.439-3.604,3.43-6.109
			L392.648,57.489z M62.994,119.36c0.392-0.14,0.793-0.317,1.171-0.527l1.811-1.013c0.488-0.233,0.989-0.483,1.507-0.735
			c0.525-0.25,1.031-0.565,1.456-0.929l145.963-81.555c58.745-33.505,102.064-17.558,117.942-9.143l3.612,1.913
			c27.255,14.452,41.308,24.21,41.976,28.941l0.009,0.432c-0.098,0.151-0.644,0.94-3.02,2.093
			c-28.772,14.132-148.576,90.917-153.869,94.311c-67.712,46.71-135.039,7.479-138.147,5.619l-27.331-14.753
			c-1.64-0.903-8.172-5.549-8.034-10.165C48.104,131.766,49.791,126.461,62.994,119.36z M182.826,404.444
			c-7.446,3.229-14.557,5.354-21.429,6.726V237.788c0-3.925-3.165-7.099-7.096-7.099c-3.925,0-7.09,3.174-7.09,7.099v175.128
			c-30.742,1.265-55.589-13.521-76.339-25.917c-23.504-16.979-22.334-35.559-22.248-36.986l-0.521-194.221
			c0.534,0.348,0.95,0.581,1.167,0.695l27.106,14.629c0.497,0.292,31.9,18.736,74.067,18.736c24.068,0,51.657-6.019,78.987-24.88
			c1.195-0.765,116.304-74.54,149.067-91.696l0.63,212.97L182.826,404.444z"/>
		<path d="M107.651,154.681c2.653,1.305,5.969,1.998,9.577,1.998c5.769,0,11.792-1.778,16.139-4.744l6.711-4.587
			c3.995,1.874,8.947,2.856,14.365,2.856c9.07,0,18.552-2.77,25.363-7.435c6.522-4.45,10.03-10.232,9.628-15.892
			c-0.353-4.935-3.554-9.138-9.036-11.842l-24.81-12.186c-10.632-5.215-29.16-3.15-40.177,4.369
			c-6.524,4.448-10.032,10.23-9.645,15.879c0.278,3.853,2.289,7.265,5.769,9.859l-3.717,2.553
			c-4.359,2.968-6.711,6.933-6.424,10.858C101.644,149.869,103.856,152.823,107.651,154.681z M111.823,141.352l8.426-5.752
			c1.041-0.707,1.633-1.932,1.528-3.178c-0.091-1.263-0.842-2.385-1.974-2.94l-1.86-0.913c-2.212-1.08-4.889-3.01-5.089-5.979
			c-0.215-3.005,2.238-6.557,6.548-9.511c5.678-3.869,13.672-6.184,21.382-6.184c4.534,0,8.569,0.803,11.661,2.333l24.817,12.19
			c2.198,1.081,4.879,2.992,5.089,5.96c0.214,3.024-2.24,6.585-6.562,9.544c-5.668,3.872-13.644,6.184-21.352,6.184
			c-4.551,0-8.583-0.803-11.691-2.348l-1.405-0.69c-1.132-0.542-2.499-0.474-3.568,0.261l-8.422,5.759
			c-5.057,3.451-13.95,4.492-18.577,2.217c-0.831-0.401-2.226-1.265-2.312-2.455C108.407,144.831,109.233,143.111,111.823,141.352z"
			/>
		<polygon points="64.982,323.825 121.577,340.43 121.738,336.02 65.146,319.419 		"/>
		<polygon points="66.842,272.337 123.442,288.92 123.598,284.514 66.996,267.914 		"/>
		<polygon points="65.36,313.32 121.955,329.902 122.042,327.699 65.437,311.065 		"/>
		<polygon points="67.057,266.08 123.652,282.657 123.722,280.417 67.129,263.834 		"/>
		<polygon points="66.59,279.338 123.188,295.954 123.265,293.732 66.669,277.131 		"/>
		<polygon points="66.188,290.241 122.781,306.851 122.873,304.634 66.263,288.034 		"/>
		<polygon points="65.638,305.568 122.23,322.15 122.394,317.725 65.801,301.125 		"/>
		<polygon points="66.35,286.175 122.933,302.762 123.087,298.347 66.508,281.751 		"/>
		<polygon points="65.848,299.64 122.448,316.25 122.532,314.052 65.948,297.437 		"/>
		<polygon points="67.271,260.162 123.88,276.749 123.953,274.569 67.357,257.945 		"/>
		<polygon points="67.558,252.381 124.153,269.02 124.314,264.595 67.726,247.966 		"/>
		<polygon points="67.768,246.515 124.354,263.097 124.431,260.904 67.85,244.293 		"/>
		<path d="M340.358,227.417c-0.915,1.815-1.923,3.057-3.029,3.691c-0.793,0.472-1.507,0.304-2.146-0.485
			c-0.653-0.793-1.088-2.054-1.303-3.785c-0.326-2.548-0.382-6.184-0.195-10.931l0.569-13.642l4.909-3.579l-0.009-9.127
			l-4.499,3.083l0.882-21.163l-8.219,8.072l-0.831,19.002l-3.047,2.021l0.079,9.292l2.455-1.664l-0.299,9.157
			c-0.187,4.2-0.178,7.64-0.065,10.688c-1.424,4.173-2.539,7.309-3.347,9.423c-0.816,2.119-1.633,3.421-2.474,3.906
			c-1.32,0.779-2.16-0.43-2.562-3.603c-0.393-3.024-0.378-9.026,0.065-18.024l0.761-17.852l-1.812,1.057l-5.777,10.098
			c-1.624-3.617-3.771-4.63-6.455-3.062c-2.133,1.246-4.387,4.228-6.758,8.928c-2.39,4.728-4.145,10.109-5.278,16.157
			c-0.863,4.686-1.181,9.208-0.947,13.577c-1.941,5.717-3.463,9.595-4.536,11.593c-1.135,2.054-2.408,3.51-3.827,4.326
			c-3.631,2.138-6.329-0.149-8.103-6.823c8.85-10.286,12.783-19.247,11.812-26.873c-0.364-2.875-1.255-4.845-2.692-5.913
			c-1.429-1.068-3.137-1.013-5.134,0.154c-3.846,2.244-6.949,7.463-9.302,15.625c-2.133,7.379-2.814,14.646-2.198,21.744
			c-2.151,7.789-4.275,12.344-6.385,13.595c-2.66,1.536-4.443-1.391-5.395-8.797c-0.822-6.544-1.205-15.794-1.167-27.69
			c0.037-11.896,0.476-21.59,1.315-29.057c0.364-3.104,0.505-5.043,0.402-5.809c-0.065-0.555-0.402-0.665-0.98-0.319
			c-1.555,0.912-3.444,2.413-5.629,4.464c-0.63,0.611-1.624,2.971-2.949,7.063c-1.349,4.074-2.418,8.168-3.211,12.228
			c-1.694,8.476-3.221,20.568-4.583,36.292c-0.929,11.079-1.812,18.127-2.642,21.146c0.224-8.653-0.495-19.401-2.175-32.287
			l-1.96-14.767c-0.682-5.186-1.13-10.487-1.373-15.896c-0.019-1.33-0.064-2.188-0.106-2.604c-0.107-0.831-0.378-1.135-0.808-0.901
			c-1.102,0.649-2.185,1.387-3.258,2.235c-1.068,0.845-1.773,1.541-2.133,2.092c-0.364,0.541-1.106,3.649-2.272,9.319
			c-0.794,3.925-1.345,7.757-1.667,11.421c-0.324,3.658-0.511,8.456-0.578,14.351l-0.091,7.239
			c-0.134,12.871-0.841,22.729-2.117,29.594c-1.286,6.875-2.754,10.79-4.416,11.761c-0.728,0.43-1.395,0.401-1.969-0.074
			c-0.579-0.472-1.148-1.867-1.696-4.229c-0.556-2.343-0.94-3.757-1.167-4.214c-0.214-0.453-0.567-0.556-1.031-0.29
			c-0.406,0.252-1.249,1.956-2.5,5.147c-1.258,3.188-1.773,5.713-1.535,7.557c0.301,2.385,1.22,4.135,2.739,5.213
			c1.533,1.097,3.139,1.139,4.856,0.141c2.746-1.605,5.227-5.876,7.416-12.783c2.184-6.936,3.441-18.543,3.745-34.84l0.107-5.895
			c0.284-15.626,1.171-26.01,2.692-31.135c-0.803,9.582-0.522,20.344,0.868,32.301c1.387,11.967,2.24,20.512,2.576,25.642
			c0.327,5.115,0.505,8.904,0.505,11.304c0,2.412,0.009,3.673,0.009,3.747c0.103,0.729,0.542,0.873,1.345,0.401
			c2.062-1.204,3.472-2.385,4.195-3.537c0.756-1.139,1.508-3.15,2.291-5.993c0.794-2.842,1.531-6.375,2.24-10.594
			c0.71-4.22,1.568-11.883,2.6-22.967c1.018-11.08,2.003-19.826,2.936-26.22c0.943-6.385,2.408-12.61,4.378-18.683l-1.129,6.838
			c-1.167,7.309-1.812,15.835-1.886,25.57c-0.094,9.769,0.196,17.227,0.854,22.374c0.854,6.67,2.152,11.635,3.926,14.884
			c1.755,3.229,3.846,4.158,6.258,2.744c3.944-2.301,7.752-9.292,11.439-20.97c0.793,3.216,1.97,5.629,3.584,7.211
			c2.213,2.138,4.761,2.376,7.688,0.672c2.627-1.54,4.877-4.037,6.762-7.49c1.844-3.384,3.818-8.116,5.918-14.123
			c0.626,3.15,1.503,5.811,2.875,7.617c1.699,2.264,3.51,2.842,5.396,1.731c1.932-1.125,3.659-3.468,5.152-7.043
			c1.484-3.565,2.978-8.602,4.452-15.145c1.115,10.403,3.379,14.604,6.776,12.62c1.34-0.794,2.665-2.469,3.93-5.031
			c1.224-2.502,3.165-7.426,5.778-14.715c0.593,3.565,1.475,6.394,2.777,8.144c1.498,1.993,3.168,2.45,5.008,1.372
			c1.782-1.041,3.527-3.234,5.227-6.571c1.694-3.355,3.604-8.125,5.731-14.31l-0.821-6.365
			C342.557,222.162,341.292,225.587,340.358,227.417z M273.918,238.525c0.812-4.452,1.927-7.104,3.351-7.934
			c1.498-0.873,2.474,0.452,2.927,3.99c0.9,7.141-1.219,13.646-6.385,19.522C273.059,248.176,273.097,242.992,273.918,238.525z
			 M308.108,238.194c-1.11,7.388-2.734,11.719-4.881,12.983c-0.888,0.509-1.69,0.312-2.408-0.583
			c-0.738-0.905-1.232-2.348-1.48-4.346c-0.667-5.26-0.443-11.593,0.678-18.985c1.129-7.393,2.781-11.705,4.928-12.965
			c0.896-0.523,1.681-0.359,2.376,0.485c0.677,0.845,1.152,2.286,1.423,4.354C309.406,224.449,309.201,230.801,308.108,238.194z"/>
	</g>
</g>
<g>
</g>
<g>
</g>
<g>
</g>
<g>
</g>
<g>
</g>
<g>
</g>
<g>
</g>
<g>
</g>
<g>
</g>
<g>
</g>
<g>
</g>
<g>
</g>
<g>
</g>
<g>
</g>
<g>
</g>
</svg>
